<?xml version="1.0" encoding="utf-8"?>
<!-- Generator: Adobe Illustrator 24.3.0, SVG Export Plug-In . SVG Version: 6.00 Build 0)  -->
<svg version="1.1" id="Capa_1" xmlns="http://www.w3.org/2000/svg" xmlns:xlink="http://www.w3.org/1999/xlink" x="0px" y="0px"
	 viewBox="0 0 106.41 86.46" style="enable-background:new 0 0 106.41 86.46;" xml:space="preserve">
<style type="text/css">
	.st0{fill:#FFFFFF;}
</style>
<g>
	<g>
		<g>
			<g>
				<path class="st0" d="M40.71,49.91c-3.45,0-6.97-1.35-7.97-2.31L20.39,36.15c-1.6-1.53-1.65-4.05-0.13-5.63L36.89,13.2
					c0.76-0.79,1.77-1.22,2.86-1.22c1.03,0,2.01,0.39,2.75,1.11c0.02,0.02,0.04,0.04,0.07,0.07l11.84,12.94
					c0.01,0.01,0.02,0.02,0.03,0.04c2.82,3.29,4.24,10.36,0.16,14.38c-0.35,0.34-0.89,0.9-1.51,1.53c-2.04,2.09-4.84,4.95-6.28,6.03
					C45.18,49.3,43.13,49.91,40.71,49.91z M39.76,14.89c-0.29,0-0.56,0.12-0.76,0.33L22.36,32.53c-0.4,0.42-0.39,1.09,0.03,1.5
					l12.35,11.45c0.44,0.37,3.05,1.52,5.97,1.52c1.77,0,3.24-0.43,4.37-1.26c1.26-0.94,4.07-3.82,5.94-5.73
					c0.63-0.65,1.18-1.21,1.55-1.57c2.79-2.75,1.66-8.07-0.32-10.4L40.47,15.16C40.27,14.99,40.02,14.89,39.76,14.89z"/>
			</g>
			<g>
				<path class="st0" d="M53.04,46.89c-0.35,0-0.7-0.13-0.98-0.38l-1.19-1.09l0.98-1.07l0,0l-1.07-0.99
					c0.1-0.11,1.02-1.04,2.21,0.05l1.04,0.95c0.59,0.54,0.63,1.46,0.09,2.06C53.82,46.73,53.43,46.89,53.04,46.89z"/>
			</g>
			<g>
				<path class="st0" d="M49.18,35.85c-0.36,0-0.72-0.13-1-0.4L36.58,24.49c-0.58-0.55-0.61-1.47-0.06-2.06
					c0.55-0.58,1.47-0.61,2.06-0.06l11.61,10.96c0.58,0.55,0.61,1.47,0.06,2.06C49.96,35.69,49.57,35.85,49.18,35.85z"/>
			</g>
			<g>
				<path class="st0" d="M45.63,39.88c-0.36,0-0.72-0.13-1.01-0.4L32.75,28.13c-0.58-0.56-0.6-1.48-0.05-2.06
					c0.56-0.58,1.48-0.6,2.06-0.05l11.88,11.35c0.58,0.56,0.6,1.48,0.05,2.06C46.4,39.73,46.01,39.88,45.63,39.88z"/>
			</g>
			<g>
				<path class="st0" d="M41.65,43.67c-0.36,0-0.71-0.13-0.99-0.39L28.92,32.3c-0.59-0.55-0.62-1.47-0.07-2.06
					c0.55-0.59,1.47-0.62,2.06-0.07l11.74,10.98c0.59,0.55,0.62,1.47,0.07,2.06C42.43,43.52,42.04,43.67,41.65,43.67z"/>
			</g>
			<g>
				<path class="st0" d="M77.03,73.1c-0.99,0-1.92-0.38-2.64-1.07L60.34,58.5l2.02-2.1l14.05,13.53c0.18,0.17,0.41,0.26,0.65,0.25
					c0.25-0.01,0.48-0.11,0.66-0.3l0.76-0.79c0.18-0.19,0.28-0.43,0.27-0.68c0-0.17-0.05-0.42-0.28-0.64l-9.36-9.01l2.02-2.1
					l9.36,9.01c0.74,0.72,1.16,1.68,1.17,2.71c0.01,1.02-0.38,1.98-1.09,2.72l-0.76,0.79c-0.71,0.74-1.66,1.16-2.68,1.19
					C77.1,73.1,77.07,73.1,77.03,73.1z"/>
			</g>
		</g>
	</g>
	<g>
		<path class="st0" d="M67.31,56.46c-0.37,0-0.74-0.14-1.03-0.43c-0.57-0.57-0.57-1.49,0-2.06c9.04-9.06,14.36-17.39,17.23-27
			c1.27-4.25,1.29-8,1.1-10.59c-4.79,5.8-15.83,18.97-25.57,29.01c-0.56,0.58-1.48,0.59-2.06,0.03c-0.58-0.56-0.59-1.48-0.03-2.06
			C68.91,31.04,82.88,13.92,84.6,11.81c0.04-0.05,0.08-0.1,0.13-0.15h0c0-0.01,0.01-0.01,0.01-0.01c0.55-0.58,1.47-0.6,2.05-0.05
			c0.39,0.37,0.53,0.91,0.41,1.4c0.01,0.19,0.05,0.55,0.09,0.88c0.28,2.49,0.88,7.68-0.99,13.93c-3.02,10.09-8.56,18.8-17.96,28.22
			C68.06,56.31,67.68,56.46,67.31,56.46z"/>
	</g>
	<g>
		<path class="st0" d="M50.1,54.45c-0.35,0-0.7-0.13-0.98-0.38c-0.59-0.54-0.63-1.46-0.09-2.06c0.29-0.32,7.08-7.75,8.5-9.24
			c0.55-0.58,1.47-0.61,2.06-0.05c0.58,0.55,0.61,1.47,0.05,2.06c-1.4,1.48-8.4,9.13-8.47,9.2C50.89,54.29,50.5,54.45,50.1,54.45z"
			/>
	</g>
	<g>
		<path class="st0" d="M38.86,76.26c-1.4,0-2.74-0.51-3.79-1.46c-1.13-1.01-1.8-2.41-1.88-3.93c-0.08-1.52,0.43-2.97,1.45-4.1
			l12-13.35c0.84-0.93,1.93-1.55,3.15-1.78c0.79-0.15,1.55,0.37,1.7,1.15c0.15,0.79-0.37,1.55-1.15,1.7
			c-0.6,0.11-1.13,0.42-1.54,0.87l-12,13.35c-0.5,0.55-0.75,1.26-0.71,2c0.04,0.74,0.36,1.42,0.92,1.92c0.55,0.5,1.26,0.74,2,0.71
			c0.74-0.04,1.42-0.36,1.92-0.92l12-13.35c1.01-1.12,0.95-2.82-0.15-3.86c-0.58-0.55-0.6-1.48-0.05-2.06
			c0.55-0.58,1.48-0.6,2.06-0.05c2.24,2.14,2.37,5.61,0.3,7.91l-12,13.35c-1.01,1.13-2.41,1.8-3.93,1.88
			C39.07,76.26,38.97,76.26,38.86,76.26z"/>
	</g>
	<g>
		<path class="st0" d="M80.69,26.98c-0.35,0-0.71-0.13-0.98-0.38c-0.59-0.54-0.63-1.47-0.09-2.06c0.05-0.05,0.08-0.09,0.1-0.11
			c-0.4,0.47-0.47,1.35,0.13,1.93c0.57,0.57,1.41,0.51,1.89,0.13l-2-2.11c1.13-1.07,2.11-0.13,2.15-0.09
			c0.17,0.17,0.95,1.05-0.12,2.22C81.48,26.82,81.08,26.98,80.69,26.98z"/>
	</g>
	<g>
		<path class="st0" d="M56.74,53.58c-0.37,0-0.75-0.14-1.03-0.43c-0.57-0.57-0.56-1.49,0.01-2.06c0.11-0.11,11.56-11.53,21.52-23.47
			c0.51-0.62,1.43-0.7,2.05-0.19c0.62,0.51,0.7,1.43,0.19,2.05c-10.04,12.05-21.58,23.56-21.7,23.67
			C57.48,53.44,57.11,53.58,56.74,53.58z"/>
	</g>
	<g>
		<path class="st0" d="M55.68,58.07c-0.76,0-1.39-0.58-1.45-1.35c-0.06-0.8,0.54-1.5,1.34-1.56c3.9-0.29,9.93-0.94,11.13-1.49
			c0.73-0.33,1.59-0.01,1.93,0.72c0.33,0.73,0.01,1.59-0.72,1.93c-2.1,0.96-10.47,1.62-12.12,1.74
			C55.75,58.07,55.72,58.07,55.68,58.07z"/>
	</g>
</g>
</svg>
