<?xml version="1.0" encoding="utf-8"?>
<!-- Generator: Adobe Illustrator 24.3.0, SVG Export Plug-In . SVG Version: 6.00 Build 0)  -->
<svg version="1.1" id="Capa_1" xmlns="http://www.w3.org/2000/svg" xmlns:xlink="http://www.w3.org/1999/xlink" x="0px" y="0px"
	 viewBox="0 0 106.41 86.46" style="enable-background:new 0 0 106.41 86.46;" xml:space="preserve">
<style type="text/css">
	.st0{fill:#FFFFFF;}
</style>
<g>
	<g>
		<path class="st0" d="M65.15,71.07c-0.51,0-1-0.29-1.23-0.78c-0.31-0.68-0.02-1.48,0.66-1.79c1.04-0.48,2.12-0.65,3.16-0.82
			c1.04-0.17,2.02-0.32,2.82-0.77c1.44-0.81,2.94-2.79,3.79-4.39c1.12-2.1,1.76-6.93,0.43-8.9c-0.24-0.36-0.29-0.8-0.15-1.21
			c0.15-0.4,0.47-0.71,0.88-0.84c2.82-0.84,5.04-2.5,6.08-4.56c0.53-1.05,0.75-2.86,0.51-4.3c-0.05-0.32-0.44-1.14-0.77-1.71
			c-0.04-0.06-0.07-0.12-0.1-0.18c-0.29-0.65-0.02-1.42,0.61-1.75c0.11-0.06,0.23-0.1,0.35-0.12c0.49-0.54,1.33-1.82,1.58-2.46
			c-0.97-1.58-3.98-3.03-7.54-2.78c-3.1,0.22-10.67,1.2-14.11,5.49c-0.29,0.37-0.76,0.55-1.22,0.49c-0.47-0.06-0.87-0.35-1.06-0.78
			c-0.68-1.5-3.94-3.37-5.72-3.8c-0.61-0.15-1.23-0.2-1.89-0.25c-1.02-0.08-2.07-0.16-3.17-0.59c-2.39-0.94-2.64-2.3-2.91-3.74
			c-0.07-0.35-0.14-0.75-0.25-1.21c-0.21-0.82-0.4-1.68-0.6-2.56c-1.15-5.11-2.34-10.4-6.98-12.72c-2.16-1.08-3.76-0.6-5.99,0.06
			c-0.58,0.17-1.19,0.35-1.83,0.51c-0.84,0.21-1.7,0.2-2.52,0.2c-0.75,0-1.46-0.01-2,0.16c-0.64,0.2-1.37,0.78-2.3,1.52
			c-0.49,0.39-1.04,0.82-1.66,1.28c-0.6,0.44-1.45,0.3-1.88-0.3c-0.44-0.6-0.3-1.45,0.3-1.88c0.57-0.41,1.08-0.81,1.56-1.2
			c1.11-0.88,2.06-1.64,3.2-1.99c0.93-0.28,1.88-0.28,2.8-0.27c0.69,0,1.34,0.01,1.86-0.12c0.6-0.15,1.16-0.31,1.71-0.48
			c2.39-0.71,4.85-1.44,7.96,0.12c5.79,2.89,7.24,9.35,8.41,14.54c0.19,0.86,0.38,1.69,0.58,2.49c0.13,0.52,0.21,0.97,0.29,1.37
			c0.23,1.25,0.25,1.33,1.24,1.72c0.73,0.29,1.54,0.35,2.39,0.42c0.74,0.06,1.51,0.12,2.33,0.32c1.64,0.4,4.67,1.87,6.45,3.75
			c4.38-4.04,11.69-4.99,14.83-5.22c4.54-0.33,8.98,1.66,10.33,4.63c0.16,0.36,0.6,1.32-1.43,4.16c-0.26,0.36-0.5,0.67-0.72,0.92
			c0.23,0.5,0.46,1.08,0.54,1.56c0.27,1.67,0.14,4.15-0.77,5.95c-1.2,2.37-3.39,4.26-6.25,5.42c1.05,3.18,0.25,7.74-1.02,10.14
			c-1.01,1.89-2.81,4.32-4.84,5.47c-1.22,0.69-2.55,0.9-3.72,1.09c-0.9,0.14-1.75,0.28-2.45,0.6
			C65.53,71.03,65.34,71.07,65.15,71.07z"/>
	</g>
	<g>
		<path class="st0" d="M58.32,72.85c-1.31,0-2.66-0.29-3.97-0.87c-3.89-1.74-6.29-5.5-6.25-9.81c0.01-0.75,0.61-1.35,1.36-1.34
			c0.75,0.01,1.34,0.62,1.34,1.36c-0.03,3.85,2.39,6.31,4.66,7.33c2.39,1.07,4.93,0.77,6.64-0.79c1.79-1.63,1.89-2.75,1.9-5.76
			c0-0.74,0.61-1.34,1.35-1.34c0,0,0,0,0,0c0.75,0,1.35,0.61,1.35,1.35c-0.01,2.93-0.02,5.24-2.78,7.75
			C62.37,72.12,60.39,72.85,58.32,72.85z"/>
	</g>
	<g>
		<path class="st0" d="M49.35,69.14c-0.17,0-0.34-0.01-0.52-0.04c-2.53-0.36-5.92-3.45-7.45-5.42c-3.33,0.79-7.98-1.64-9.95-3.52
			c-2.95-2.8-4.25-6.01-5.64-9.91c-1.97-5.52-2.68-13.76,1.79-18.79c0.49-0.56,1.35-0.61,1.9-0.11c0.56,0.49,0.61,1.35,0.11,1.9
			c-3.46,3.89-3.13,10.89-1.27,16.09c1.27,3.56,2.44,6.47,4.96,8.86c1.87,1.78,6.18,3.68,7.95,2.67c0.33-0.19,0.72-0.23,1.08-0.11
			c0.36,0.11,0.66,0.38,0.81,0.72c0.75,1.63,5.23,5.34,6.33,4.95c0.49-0.56,1.33-0.61,1.89-0.12c0.56,0.49,0.61,1.35,0.11,1.91
			C50.93,68.83,50.2,69.14,49.35,69.14z"/>
	</g>
	<g>
		<path class="st0" d="M27.79,20.99c-0.11,0-0.23-0.01-0.34-0.04c-0.26-0.07-0.52-0.13-0.79-0.2c-2.17-0.54-4.63-1.15-6.44-3.19
			c-0.49-0.56-0.44-1.41,0.11-1.9c0.56-0.49,1.41-0.44,1.9,0.12c1.26,1.42,3.11,1.88,5.07,2.37c0.27,0.07,0.54,0.13,0.81,0.2
			c0.72,0.19,1.15,0.92,0.97,1.64C28.93,20.59,28.39,20.99,27.79,20.99z"/>
	</g>
	<g>
		<path class="st0" d="M30.46,27.25c-1.71,0-3.63-0.67-4.41-2.3c-0.56-1.16-0.66-3.1,1.98-5.68c0.53-0.52,1.39-0.51,1.91,0.02
			c0.52,0.53,0.51,1.39-0.02,1.91c-1.34,1.31-1.61,2.21-1.43,2.59c0.22,0.45,1.25,0.87,2.38,0.74c0.64-0.07,1.33-0.35,1.43-0.8
			c0.16-0.73,0.88-1.19,1.61-1.03c0.73,0.16,1.19,0.88,1.03,1.61c-0.34,1.56-1.78,2.68-3.75,2.91
			C30.95,27.24,30.71,27.25,30.46,27.25z"/>
	</g>
	<g>
		<path class="st0" d="M44.68,18.41c-0.46,0-0.91-0.24-1.16-0.66c-0.38-0.64-0.17-1.47,0.47-1.85c1.4-0.83,2.14-2.76,1.88-4.91
			c-0.2-1.63-1.11-3.73-3.02-4.31c-0.67-0.2-1.24-0.18-1.69,0.08c-0.53,0.3-0.94,0.95-1.15,1.81c-0.17,0.72-0.89,1.16-1.61,1
			c-0.72-0.16-1.17-0.87-1.02-1.59c0.07-0.34-0.02-0.45-0.06-0.49c-0.17-0.2-0.66-0.42-1.35-0.39c-0.51,0.02-0.68,0.2-0.74,0.27
			C34.93,7.71,34.8,8.52,34.9,9.5c0.06,0.63-0.32,1.21-0.91,1.41c-0.6,0.2-1.25-0.04-1.58-0.58c-0.63-1.04-1.32-1.6-1.8-1.48
			c-0.46,0.12-0.9,0.79-0.92,1.41c-0.02,0.5,0.24,0.65,0.51,0.74c0.71,0.23,1.09,1,0.86,1.7c-0.23,0.71-1,1.09-1.7,0.86
			c-1.51-0.5-2.41-1.79-2.36-3.39c0.06-1.82,1.31-3.51,2.93-3.93c0.51-0.13,1.51-0.25,2.64,0.41c0.17-0.41,0.38-0.77,0.65-1.08
			c0.45-0.52,1.29-1.15,2.68-1.2c1.13-0.04,2.17,0.26,2.93,0.82c0.3-0.32,0.64-0.58,1.01-0.79c1.1-0.63,2.42-0.74,3.8-0.32
			c2.64,0.8,4.52,3.31,4.92,6.57c0.39,3.22-0.86,6.18-3.18,7.56C45.15,18.35,44.91,18.41,44.68,18.41z"/>
	</g>
	<g>
		<path class="st0" d="M29.38,20.79c-0.39,0-0.78-0.17-1.05-0.5c-0.47-0.58-0.38-1.43,0.2-1.9c0.15-0.12,0.28-0.21,0.4-0.3
			c0.01-0.66,0.5-1.24,1.18-1.32c0.74-0.1,1.41,0.43,1.51,1.17c0.19,1.48-0.64,2.03-1.09,2.33c-0.09,0.06-0.19,0.13-0.31,0.22
			C29.97,20.7,29.67,20.79,29.38,20.79z"/>
	</g>
	<g>
		<path class="st0" d="M58.39,80.61c-0.57,0-1.1-0.37-1.29-0.94c-0.42-1.32-0.75-6.43-0.13-7.74c0.32-0.67,1.12-0.97,1.8-0.65
			c0.66,0.31,0.95,1.09,0.67,1.75c-0.24,0.83-0.07,4.82,0.24,5.82c0.23,0.71-0.17,1.47-0.88,1.69
			C58.66,80.59,58.53,80.61,58.39,80.61z"/>
	</g>
	<g>
		<path class="st0" d="M64.35,83.79c-0.53,0-1.04-0.32-1.25-0.84c-0.77-1.91-3.48-2.77-8.02-2.54c-1.01,0.05-4.09,1.01-5.79,1.6
			c-0.7,0.25-1.47-0.13-1.72-0.83c-0.24-0.7,0.13-1.47,0.83-1.72c0.49-0.17,4.81-1.65,6.53-1.74c2.17-0.11,8.78-0.45,10.66,4.22
			c0.28,0.69-0.06,1.48-0.75,1.76C64.69,83.76,64.52,83.79,64.35,83.79z"/>
	</g>
	<g>
		<path class="st0" d="M30.77,30.93c-0.32,0-0.63-0.11-0.89-0.34c-0.56-0.49-0.62-1.34-0.12-1.9c0.43-0.49,0.67-1.18,0.66-1.86
			c-0.02-0.74,0.57-1.36,1.32-1.38c0.73-0.02,1.36,0.57,1.38,1.32c0.03,1.36-0.45,2.71-1.33,3.7
			C31.51,30.77,31.14,30.93,30.77,30.93z"/>
	</g>
	<g>
		<path class="st0" d="M77.47,44.95c-0.58,0-1.12-0.38-1.29-0.97c-0.21-0.72,0.2-1.47,0.91-1.67c2.29-0.67,4.99-2.12,5.49-3.7
			c0.22-0.71,0.98-1.11,1.69-0.88c0.71,0.22,1.11,0.98,0.88,1.69c-1.07,3.41-5.86,5.05-7.3,5.48
			C77.72,44.93,77.59,44.95,77.47,44.95z"/>
	</g>
	<g>
		<g>
			<path class="st0" d="M64.18,54.3c-0.44,0-0.87-0.02-1.27-0.05c-6.19-0.54-14.98-1.98-19.77-8.17c-1-1.29-3.65-5.62-2.72-8.43
				c0.23-0.71,1-1.09,1.7-0.86c0.71,0.23,1.09,1,0.86,1.71c-0.37,1.12,0.95,4.2,2.29,5.93c4.15,5.36,12.19,6.64,17.87,7.14
				c2.32,0.2,5.69-0.37,8.35-1.15c-0.1-0.11-0.2-0.23-0.29-0.34c-1.23-1.44-2.63-3.06-4.03-4.3c-0.56-0.49-0.61-1.35-0.11-1.91
				c0.5-0.56,1.35-0.61,1.91-0.11c1.53,1.36,3,3.06,4.28,4.56c0.57,0.66,1.11,1.29,1.59,1.81c0.3,0.33,0.42,0.78,0.32,1.22
				c-0.1,0.43-0.41,0.79-0.82,0.95C71.64,53.35,67.5,54.3,64.18,54.3z"/>
		</g>
		<g>
			<path class="st0" d="M68.84,53.55c-3.76,0-6.92-1.88-7.64-2.34c-1.98-1.27-3.4-2.65-4.75-4.61c-0.42-0.61-0.27-1.45,0.35-1.88
				c0.62-0.42,1.45-0.27,1.88,0.35c1.14,1.67,2.3,2.79,3.98,3.87c2.02,1.3,5.43,2.49,8.4,1.6c0.71-0.21,1.47,0.19,1.68,0.9
				c0.21,0.71-0.19,1.47-0.9,1.68C70.82,53.42,69.81,53.55,68.84,53.55z"/>
		</g>
	</g>
</g>
</svg>
