<?xml version="1.0" encoding="utf-8"?>
<!-- Generator: Adobe Illustrator 24.3.0, SVG Export Plug-In . SVG Version: 6.00 Build 0)  -->
<svg version="1.1" id="Capa_1" xmlns="http://www.w3.org/2000/svg" xmlns:xlink="http://www.w3.org/1999/xlink" x="0px" y="0px"
	 viewBox="0 0 106.41 86.46" style="enable-background:new 0 0 106.41 86.46;" xml:space="preserve">
<style type="text/css">
	.st0{fill:#FFFFFF;}
</style>
<g>
	<g>
		<path class="st0" d="M36.37,69.58c-0.01,0-0.02,0-0.03,0l-6.74-0.11c-0.6-0.01-1.15-0.35-1.42-0.89
			c-0.27-0.53-0.23-1.18,0.12-1.67c0.03-0.04,2.98-4.35,1.42-8.54c-0.31-0.84,0.11-1.77,0.95-2.08c0.84-0.31,1.77,0.11,2.08,0.95
			c1.29,3.47,0.45,6.83-0.47,9.02l3.33,0.05c1.15-1.44,4.09-5.44,4.71-9.41c0.07-0.43,0.3-0.81,0.65-1.06
			c0.35-0.25,0.78-0.36,1.21-0.29c14.98,2.42,20.78-1.32,20.84-1.36c0.63-0.44,1.46-0.37,2.02,0.15c3.1,2.91,6.29,3.48,8.43,3.45
			c0.48,0,0.91,0.19,1.23,0.53c0.31,0.35,0.46,0.81,0.41,1.28c-0.2,1.7-1.33,4.44-2.21,6.38l4.3,0.18
			c1.91-3.35,8.89-16.73,5.87-28.77c-1.56-6.22-5.59-11.21-11.98-14.84c-8.6-4.88-18.79-4.82-30.28,0.19
			c-8.74,3.8-14.97,9.18-15.03,9.24c-0.67,0.59-1.7,0.52-2.28-0.16c-0.59-0.67-0.52-1.7,0.16-2.28c0.27-0.23,6.61-5.72,15.79-9.73
			c12.33-5.39,23.83-5.41,33.25-0.07c7.2,4.08,11.75,9.76,13.53,16.88c3.79,15.17-6.32,31.38-6.75,32.06
			c-0.31,0.49-0.85,0.78-1.44,0.75l-7.71-0.32c-0.55-0.02-1.05-0.32-1.33-0.8c-0.28-0.47-0.3-1.06-0.05-1.55
			c0.76-1.51,1.89-4,2.51-5.85c-2.27-0.29-5.03-1.19-7.74-3.43C61.31,58.63,55,60.67,43.19,59c-1.41,5.25-5.42,9.83-5.61,10.04
			C37.28,69.39,36.84,69.58,36.37,69.58z"/>
	</g>
	<g>
		<path class="st0" d="M48.7,69.58h-6.72c-0.63,0-1.2-0.36-1.46-0.93c-0.27-0.57-0.19-1.23,0.21-1.72c0.04-0.05,3.82-4.72,4.63-9.39
			c0.15-0.88,0.99-1.47,1.87-1.32c0.88,0.15,1.47,0.99,1.32,1.87c-0.55,3.16-2.15,6.19-3.45,8.25h2.92
			c1.05-1.13,3.71-4.31,4.05-7.91c0.08-0.89,0.88-1.54,1.76-1.46c0.89,0.08,1.54,0.87,1.46,1.76c-0.54,5.72-5.29,10.22-5.49,10.41
			C49.51,69.43,49.11,69.58,48.7,69.58z"/>
	</g>
	<g>
		<path class="st0" d="M64.24,69.58h-6.39c-0.64,0-1.21-0.37-1.48-0.95c-0.26-0.58-0.16-1.26,0.26-1.74
			c0.04-0.05,4.11-4.7,4.92-9.35c0.15-0.88,0.99-1.47,1.87-1.32c0.88,0.15,1.47,0.99,1.32,1.87c-0.55,3.15-2.24,6.18-3.64,8.25h2.49
			c1.02-1.02,3.61-3.87,4.24-7.19c0.17-0.88,1.01-1.46,1.89-1.29c0.88,0.17,1.46,1.01,1.29,1.89c-0.99,5.26-5.52,9.26-5.71,9.43
			C65.01,69.44,64.63,69.58,64.24,69.58z"/>
	</g>
	<g>
		<path class="st0" d="M72.76,53.19c-0.35,0-0.7-0.11-1-0.35c-0.7-0.55-0.83-1.57-0.27-2.27c2.09-2.66,3.19-5.86,3.19-9.25
			c0-3.75-1.39-7.33-3.91-10.1c-0.6-0.66-0.55-1.68,0.11-2.29c0.66-0.6,1.68-0.55,2.29,0.11c3.07,3.36,4.75,7.73,4.75,12.28
			c0,4.13-1.34,8.02-3.89,11.25C73.71,52.98,73.24,53.19,72.76,53.19z"/>
	</g>
	<g>
		<path class="st0" d="M67.48,28.31c-0.28,0-0.56-0.07-0.82-0.23c-0.88-0.52-1.02-1.47-0.7-2.13c0.22-0.46,0.67-0.83,1.25-0.91
			c0.34-0.06,0.69-0.01,1.02,0.17c0.92,0.49,1.09,1.44,0.79,2.13c-0.2,0.44-0.62,0.81-1.15,0.92
			C67.74,28.29,67.61,28.31,67.48,28.31z"/>
	</g>
	<g>
		<path class="st0" d="M95.73,43.47c-1.66,0-3.45-1.09-3.91-1.39c-0.73-0.48-1.58-1.03-2.3-1.86c-1.85,0.4-3.74,0.33-5.2-0.53
			c-0.77-0.45-1.02-1.45-0.57-2.22c0.45-0.77,1.45-1.02,2.22-0.57c0.51,0.3,1.27,0.37,2.1,0.28c-0.29-1.61-0.19-3.72,0.6-5.46
			c0.64-1.38,1.63-2.33,2.87-2.73c1.9-0.62,3.66-0.02,4.6,1.57c1.22,2.08,0.72,5.25-1.1,6.94c-0.56,0.52-1.27,1.02-2.09,1.45
			c0.19,0.13,0.4,0.27,0.63,0.42c0.72,0.47,1.62,0.82,2.03,0.87c0.61-0.45,1.47-0.43,2.05,0.1c0.66,0.6,0.71,1.62,0.11,2.29
			C97.22,43.25,96.49,43.47,95.73,43.47z M93,31.98c-0.11,0-0.25,0.03-0.45,0.09c-0.37,0.12-0.68,0.46-0.94,1.01
			c-0.42,0.92-0.54,2.17-0.43,3.14c0.64-0.32,1.22-0.7,1.65-1.1c0.76-0.71,0.92-2.22,0.51-2.92C93.3,32.09,93.23,31.98,93,31.98z"/>
	</g>
	<g>
		<path class="st0" d="M16.09,61.93c-0.57,0-1.1-0.3-1.39-0.8l-2.81-4.75c-0.38-0.65-0.27-1.47,0.27-1.99
			c0.77-0.74,0.98-4.83,1.1-7.27c0.21-4.14,0.41-6.89,1.58-8.37c-0.81-0.79-3.23-2.13-5.6-3.06c-0.57-0.22-0.97-0.75-1.02-1.36
			c-0.05-0.61,0.24-1.2,0.77-1.52c0.37-0.23,9.23-5.57,18.47-2.08l1.51,0.57l-1.14,3.03l-1.51-0.57c-4.77-1.8-9.59-0.71-12.59,0.41
			c2.17,1.13,4.24,2.62,4.53,4.23c0.15,0.88-0.16,1.74-0.87,2.37c-0.58,0.66-0.77,4.33-0.88,6.52c-0.17,3.42-0.33,6.45-1.3,8.34
			l1.73,2.92c2.84-0.49,10.88-2.31,13.7-7.63l0.76-1.43l2.86,1.51l-0.76,1.43c-4.24,8.01-16.7,9.43-17.23,9.48
			C16.2,61.93,16.14,61.93,16.09,61.93z"/>
	</g>
</g>
</svg>
