<?xml version="1.0" encoding="utf-8"?>
<!-- Generator: Adobe Illustrator 24.3.0, SVG Export Plug-In . SVG Version: 6.00 Build 0)  -->
<svg version="1.1" id="Capa_1" xmlns="http://www.w3.org/2000/svg" xmlns:xlink="http://www.w3.org/1999/xlink" x="0px" y="0px"
	 viewBox="0 0 51.88 53.21" style="enable-background:new 0 0 51.88 53.21;" xml:space="preserve">
<style type="text/css">
	.st0{fill:none;stroke:#FFFFFF;stroke-width:1.5;stroke-miterlimit:10;}
	.st1{fill:#FFFFFF;}
</style>
<g id="XMLID_2080_">
	<path id="XMLID_2082_" class="st0" d="M25.94,46.02L25.94,46.02c-10.51,0-19.03-8.52-19.03-19.03v0c0-10.51,8.52-19.03,19.03-19.03
		h0c10.51,0,19.03,8.52,19.03,19.03v0C44.97,37.5,36.45,46.02,25.94,46.02z"/>
	<path id="XMLID_2081_" class="st1" d="M23.04,38.5h4.63V26.9h3.23l0.34-3.88h-3.58c0,0,0-1.45,0-2.21c0-0.92,0.18-1.28,1.07-1.28
		c0.71,0,2.51,0,2.51,0v-4.03c0,0-2.64,0-3.21,0c-3.45,0-5,1.52-5,4.42c0,2.53,0,3.1,0,3.1h-2.41v3.93h2.41V38.5z"/>
</g>
</svg>
