<?xml version="1.0" encoding="utf-8"?>
<!-- Generator: Adobe Illustrator 24.3.0, SVG Export Plug-In . SVG Version: 6.00 Build 0)  -->
<svg version="1.1" id="Capa_1" xmlns="http://www.w3.org/2000/svg" xmlns:xlink="http://www.w3.org/1999/xlink" x="0px" y="0px"
	 viewBox="0 0 106.41 86.46" style="enable-background:new 0 0 106.41 86.46;" xml:space="preserve">
<style type="text/css">
	.st0{fill:#FFFFFF;}
</style>
<g>
	<g>
		<path class="st0" d="M85.31,80.36c-1.32,0-2.83-0.27-4.28-1.12c-0.63-0.37-0.94-1.13-0.74-1.83c0.46-1.62,0.55-6.7,0.23-11.01
			c-5.98-3.76-7.12-8.75-7.07-12.17c-4.71,2.88-13.75,7.41-20.25,4.48c-0.11,1.86-0.13,4.39-0.15,6.87
			c-0.04,4.53-0.07,9.21-0.58,12.31c-0.1,0.59-0.52,1.09-1.09,1.28c-4.99,1.65-8.51-0.59-8.65-0.68c-0.53-0.35-0.81-0.97-0.72-1.6
			c0.46-3,0.68-8.46-0.64-10.3c-0.19-0.26-0.3-0.58-0.3-0.91c-0.04-1.91-0.57-4.98-1.83-6.52c-0.05,0.02-0.09,0.03-0.14,0.05
			c-2.55,0.84-7.31,2.41-12.01-3c-3.19-3.67-3.47-9.15-3.36-12.09l0.06-1.62l3.23,0.13l-0.06,1.62c-0.08,1.98,0.02,6.91,2.57,9.84
			c3.29,3.78,6.21,2.82,8.55,2.05c0.42-0.14,0.81-0.27,1.18-0.36c0.47-0.12,0.98-0.02,1.37,0.27c3.02,2.25,3.56,7.29,3.65,9.1
			c1.72,2.99,1.36,8.52,1.08,11.02c0.84,0.29,2.26,0.58,4.04,0.19c0.33-2.88,0.37-7.06,0.4-10.79c0.03-4.38,0.06-8.15,0.52-9.97
			c0.14-0.55,0.55-0.98,1.09-1.15c0.54-0.17,1.12-0.05,1.55,0.32c5.54,4.82,17.51-2.11,21.65-5.19c0.58-0.43,1.37-0.43,1.94,0.01
			c0.57,0.43,0.79,1.19,0.54,1.86c-0.11,0.31-2.69,7.74,5.77,12.6c0.46,0.26,0.76,0.73,0.81,1.26c0.28,3.14,0.43,8.46,0,11.6
			c1.32,0.4,2.66,0.2,3.46-0.01c1.19-6.55-0.48-15.45-0.5-15.54c-0.06-0.32-0.02-0.65,0.11-0.95c0.08-0.19,8.37-19.41,0.76-30.74
			c-5.81-8.65-13.69-7.14-23.68-5.22c-8.48,1.63-18.09,3.47-27.44-1.61l-1.42-0.77l1.54-2.85l1.42,0.77
			c8.34,4.52,16.96,2.87,25.29,1.27c9.82-1.88,19.98-3.83,26.97,6.6c7.99,11.9,1.04,30.17-0.29,33.38
			c0.37,2.16,1.69,10.83,0.2,17.27c-0.12,0.5-0.46,0.92-0.93,1.12C89.07,79.66,87.43,80.36,85.31,80.36z"/>
	</g>
	<g>
		<path class="st0" d="M16.92,43.26c-1.35,0-2.7-0.3-3.88-0.9c-2.11-1.06-3.67-2.99-4.5-5.57l-0.24-0.74l0.42-0.65
			c0.18-0.27,0.35-0.54,0.53-0.8c1.33-2.01,2.48-3.75,3.01-6.08c0.27-1.22,0.41-2.34,0.55-3.43c0.4-3.2,0.77-6.22,4.41-9.34
			c6.33-5.43,13.45-2.03,13.75-1.88l1.45,0.71L31,17.5l-1.45-0.71c-0.25-0.12-5.55-2.58-10.21,1.43c-2.69,2.31-2.94,4.29-3.31,7.29
			c-0.14,1.11-0.3,2.37-0.6,3.74c-0.66,2.91-2.02,4.97-3.47,7.15c-0.02,0.04-0.05,0.07-0.07,0.11c0.58,1.39,1.46,2.38,2.61,2.96
			c1.26,0.63,2.82,0.73,4.19,0.27c1.83-0.62,3.14-2.37,3.15-2.39l0.74-1.02l1.17,0.47c0.03,0.01,3.37,1.32,5.88,0.21
			c1.09-0.48,1.86-1.36,2.36-2.68l0.57-1.51l3.03,1.14l-0.57,1.51c-0.81,2.16-2.19,3.67-4.1,4.51c-2.66,1.17-5.66,0.63-7.25,0.19
			c-0.8,0.84-2.18,2.03-3.94,2.63C18.83,43.11,17.87,43.26,16.92,43.26z"/>
	</g>
	<g>
		<path class="st0" d="M15.06,22.96c-0.22,0-0.44-0.04-0.65-0.14c-2.61-1.14-7.06-5.15-5.25-12.18c0.18-0.7,0.8-1.19,1.52-1.21
			c0.71-0.02,1.37,0.44,1.59,1.12c1.43,4.46,4.9,4.51,4.93,4.51c0.89,0,1.62,0.72,1.62,1.62c0,0.89-0.72,1.62-1.62,1.62
			c-0.15,0-2.46-0.03-4.68-1.75c1,2.32,3.06,3.25,3.19,3.3c0.82,0.36,1.19,1.31,0.84,2.13C16.28,22.6,15.69,22.96,15.06,22.96z"/>
	</g>
	<g>
		<path class="st0" d="M32.64,23.89c-0.61,0-1.19-0.34-1.47-0.93c-0.38-0.81-0.03-1.77,0.78-2.15c0.01-0.01,1.89-0.93,3.23-2.93
			c0.93-1.39,1.38-2.95,1.35-4.68c-2.31,3.73-5.93,5-8.02,5.11c-0.89,0.05-1.65-0.64-1.7-1.54c-0.04-0.89,0.64-1.65,1.53-1.7
			c0.26-0.02,5.75-0.48,6.91-7.73c0.11-0.71,0.68-1.26,1.4-1.35c0.72-0.09,1.4,0.31,1.69,0.97c5.09,11.88-4.91,16.73-5.01,16.78
			C33.1,23.84,32.87,23.89,32.64,23.89z"/>
	</g>
	<g>
		<path class="st0" d="M40.34,78.99c-1.48,0-3.16-0.27-4.24-1.26c-0.46-0.42-0.63-1.07-0.45-1.66c1.46-4.81-0.7-7.84-0.73-7.87
			c-0.23-0.31-0.34-0.69-0.31-1.08c0-0.04,0.27-4.46-2.16-7.1c-0.61-0.66-0.57-1.68,0.09-2.29c0.66-0.61,1.68-0.57,2.29,0.09
			c2.81,3.05,3.05,7.43,3.03,8.97c0.69,1.2,2.16,4.41,1.23,8.85c0.94,0.17,2.42,0.1,3.59-0.15c0.87-0.18,1.73,0.37,1.92,1.25
			c0.19,0.87-0.37,1.73-1.24,1.92C42.95,78.76,41.73,78.99,40.34,78.99z"/>
	</g>
	<g>
		<path class="st0" d="M74.18,65.43c-4.74,0-8.8-3.38-9.66-8.03c-0.16-0.88,0.42-1.72,1.3-1.89c0.88-0.16,1.72,0.42,1.89,1.3
			c0.58,3.12,3.3,5.38,6.47,5.38c0.74,0,1.47-0.12,2.17-0.36c0.84-0.29,1.77,0.15,2.06,1c0.29,0.84-0.15,1.77-1,2.06
			C76.38,65.25,75.29,65.43,74.18,65.43z"/>
	</g>
	<g>
		<path class="st0" d="M63.69,63.84c-0.41,0-0.83-0.16-1.15-0.47c-0.63-0.63-0.63-1.66,0-2.29l2.43-2.43c0.63-0.63,1.66-0.63,2.29,0
			c0.63,0.63,0.63,1.66,0,2.29l-2.43,2.43C64.52,63.68,64.1,63.84,63.69,63.84z"/>
	</g>
	<g>
		<path class="st0" d="M69.68,68.05c-0.27,0-0.54-0.07-0.79-0.2c-0.78-0.43-1.06-1.42-0.63-2.2l1.46-2.62
			c0.44-0.78,1.42-1.06,2.2-0.63c0.78,0.43,1.06,1.42,0.63,2.2l-1.46,2.62C70.8,67.75,70.24,68.05,69.68,68.05z"/>
	</g>
	<g>
		<path class="st0" d="M79.15,79.64c-2.43,0-4.78-0.68-4.91-0.71l-1.51-0.44l0.4-1.52c0.01-0.04,0.95-3.72,0.4-6.81L72,68.6
			l2.3-2.28l2.19,2.21l0.1,0.45c0.59,2.57,0.3,5.42,0,7.16c1.18,0.21,2.72,0.38,3.89,0.14l1.59-0.33l0.66,3.17l-1.58,0.33
			C80.51,79.58,79.82,79.64,79.15,79.64z"/>
	</g>
	<g>
		<path class="st0" d="M96.41,43.74c-0.26,0-0.53-0.06-0.77-0.2c-0.78-0.43-1.07-1.41-0.65-2.2c1.24-2.28,1.11-5.21-0.34-7.66
			c-1.28-2.15-3.32-3.44-5.47-3.44c-0.89,0-1.62-0.72-1.62-1.62c0-0.89,0.72-1.62,1.62-1.62c3.3,0,6.38,1.88,8.25,5.02
			c2.03,3.43,2.19,7.59,0.4,10.86C97.54,43.44,96.98,43.74,96.41,43.74z"/>
	</g>
	<g>
		<path class="st0" d="M84.86,46.65c-0.17,0-0.34-0.03-0.51-0.08c-0.85-0.28-1.31-1.2-1.03-2.04c0.38-1.15,0.57-2.36,0.57-3.59
			c0-3.92-1.97-7.52-5.28-9.64c-0.75-0.48-0.97-1.48-0.49-2.24c0.48-0.75,1.48-0.97,2.24-0.49c4.24,2.72,6.77,7.34,6.77,12.37
			c0,1.57-0.25,3.12-0.74,4.6C86.17,46.22,85.54,46.65,84.86,46.65z"/>
	</g>
	<g>
		<path class="st0" d="M74.58,29.72c-0.11,0-0.23-0.01-0.36-0.03c-0.88-0.16-1.46-1.01-1.3-1.88c0.06-0.3,0.19-0.57,0.38-0.78
			c0.04-0.06,0.08-0.11,0.13-0.16c0.2-0.22,0.78-0.71,1.71-0.47c0.87,0.22,1.39,1.1,1.17,1.97c-0.07,0.27-0.2,0.51-0.38,0.7
			c-0.02,0.03-0.04,0.06-0.07,0.08C75.69,29.33,75.27,29.72,74.58,29.72z"/>
	</g>
</g>
</svg>
