<?xml version="1.0" encoding="utf-8"?>
<!-- Generator: Adobe Illustrator 24.3.0, SVG Export Plug-In . SVG Version: 6.00 Build 0)  -->
<svg version="1.1" id="Capa_1" xmlns="http://www.w3.org/2000/svg" xmlns:xlink="http://www.w3.org/1999/xlink" x="0px" y="0px"
	 viewBox="0 0 106.41 86.46" style="enable-background:new 0 0 106.41 86.46;" xml:space="preserve">
<style type="text/css">
	.st0{fill:#FFFFFF;}
</style>
<g>
	<g>
		<g>
			<path class="st0" d="M50.89,75.52c-9.71,0-15.95-4.11-19.57-7.73c-6.37-6.38-8.23-14.44-7.93-18.31
				c0.42-5.38,1.43-11.02,5.95-15.87c5.28-5.66,14.24-8.99,27.41-10.16c0.76-0.07,1.43,0.49,1.5,1.26c0.07,0.76-0.49,1.43-1.26,1.5
				c-26.95,2.4-30.05,13.38-30.84,23.49c-0.25,3.23,1.46,10.46,7.13,16.13c5.07,5.08,12.04,7.43,20.15,6.81
				c6.81-0.52,11.67-3.42,14.84-8.85c1-1.71,1.67-3.97,2.33-6.14c1.48-4.92,3.15-10.5,9.16-11c0.77-0.06,1.43,0.5,1.49,1.27
				c0.06,0.76-0.5,1.43-1.27,1.49c-3.85,0.32-5.12,3.62-6.74,9.03c-0.7,2.33-1.42,4.74-2.59,6.74c-3.66,6.28-9.23,9.62-17.02,10.22
				C52.7,75.49,51.78,75.52,50.89,75.52z"/>
		</g>
		<g>
			<path class="st0" d="M73.25,26.75c-0.04,0-0.08,0-0.12,0c-2.9-0.25-5.69-0.42-8.29-0.5c-0.76-0.02-1.36-0.66-1.34-1.43
				c0.02-0.76,0.67-1.37,1.43-1.34c2.65,0.09,5.49,0.26,8.44,0.51c0.76,0.07,1.33,0.74,1.26,1.5C74.56,26.2,73.96,26.75,73.25,26.75
				z"/>
		</g>
		<g>
			<path class="st0" d="M19.66,32.55c-0.31,0-0.61-0.1-0.87-0.31c-0.6-0.48-0.69-1.35-0.21-1.95c9.26-11.49,22.73-15.11,32.41-16.13
				c11.12-1.17,20.81,0.76,23.53,2.59c2.88,1.94,4.4,4.91,3.98,7.76c-0.34,2.31-1.9,4.11-4.15,4.81c-0.73,0.23-1.51-0.18-1.73-0.91
				c-0.23-0.73,0.18-1.51,0.91-1.73c1.23-0.38,2.05-1.32,2.23-2.57c0.21-1.39-0.42-3.45-2.79-5.06c-2.03-1.37-11.01-3.25-21.69-2.13
				c-9.15,0.96-21.88,4.36-30.54,15.11C20.47,32.38,20.07,32.55,19.66,32.55z"/>
		</g>
		<g>
			<path class="st0" d="M20.02,23.36c-0.38,0-0.76-0.15-1.03-0.46c-0.51-0.57-0.47-1.44,0.1-1.96c11.01-9.91,24-11.41,32.95-10.93
				c11.11,0.6,20.12,4.46,23.79,7.8c0.57,0.52,0.61,1.39,0.09,1.96c-0.51,0.57-1.39,0.61-1.96,0.09c-3.42-3.11-12.1-6.54-22.07-7.08
				C43.46,12.33,31.25,13.73,20.95,23C20.68,23.24,20.35,23.36,20.02,23.36z"/>
		</g>
		<g>
			<path class="st0" d="M55.16,45.03c-6.76,0-12.56-2.71-15.58-5.35c-2.39-2.09-4.08-5.17-5.31-7.41c-0.14-0.26-0.27-0.5-0.4-0.73
				c-0.37-0.67-0.13-1.51,0.53-1.88c0.67-0.37,1.51-0.13,1.88,0.53c0.13,0.23,0.27,0.48,0.41,0.74c1.13,2.07,2.69,4.89,4.71,6.66
				c3.8,3.32,13.39,6.99,22.95,2.68c4.87-2.2,8.59-9.23,7.66-14.47c-0.13-0.75,0.37-1.47,1.12-1.61c0.75-0.13,1.47,0.37,1.61,1.12
				c1.15,6.45-3.26,14.78-9.25,17.48C61.96,44.39,58.44,45.03,55.16,45.03z"/>
		</g>
		<g>
			<path class="st0" d="M37.74,56.48c-6.13,0-11.08-3.47-12.93-9.07c-0.33-1-0.33-4.77,0.09-5.74c0.3-0.7,1.12-1.03,1.82-0.73
				c0.68,0.29,1.01,1.07,0.75,1.76c-0.15,0.63-0.17,3.29-0.02,3.86c1.48,4.47,5.32,7.15,10.29,7.15c0.03,0,0.07,0,0.1,0
				c5.12-0.04,9.73-4.58,10.96-10.81c0.15-0.75,0.88-1.24,1.63-1.09c0.75,0.15,1.24,0.88,1.09,1.63c-1.48,7.51-7.23,13-13.66,13.05
				C37.82,56.48,37.78,56.48,37.74,56.48z"/>
		</g>
		<g>
			<path class="st0" d="M39.28,72.44c-0.76,0-1.5-0.09-2.22-0.27c-0.74-0.19-1.19-0.94-1-1.68c0.19-0.74,0.94-1.19,1.68-1
				c2.02,0.51,4.61-0.1,6.16-1.47c1.06-0.93,1.63-2.67,1.56-4.77c-0.1-3.14-1.58-6.42-3.59-7.98c-0.61-0.47-0.72-1.34-0.25-1.94
				c0.47-0.61,1.34-0.72,1.94-0.25c2.71,2.09,4.54,6.05,4.67,10.09c0.09,2.98-0.79,5.44-2.5,6.94
				C44.02,71.6,41.62,72.44,39.28,72.44z"/>
		</g>
		<g>
			<path class="st0" d="M61.19,70.79c-0.73,0-1.35-0.58-1.38-1.32c-0.01-0.28-0.07-0.57-0.17-0.87c-0.28-0.82-0.52-1.1-2-0.79
				c-2.76,0.59-9.1-0.99-11.88-4.32c-0.49-0.59-0.41-1.46,0.17-1.95c0.59-0.49,1.46-0.41,1.95,0.17c2.08,2.48,7.36,3.77,9.17,3.38
				c2.68-0.58,4.43,0.3,5.21,2.61c0.18,0.55,0.29,1.09,0.32,1.62c0.04,0.76-0.55,1.41-1.32,1.45
				C61.24,70.79,61.22,70.79,61.19,70.79z"/>
		</g>
		<g>
			<path class="st0" d="M60.61,68.96c-0.68,0-1.27-0.5-1.37-1.18c-0.11-0.76,0.41-1.46,1.17-1.57c1.92-0.28,4.07-2.7,3.41-12.64
				c-0.31-4.61,0.67-7.05,2.23-9.3c1.34-1.93,6.43-5.21,10.99-4.36c0.75,0.14,1.25,0.86,1.11,1.62c-0.14,0.75-0.87,1.25-1.62,1.11
				c-3.41-0.64-7.47,2.17-8.2,3.22c-1.27,1.82-2,3.72-1.74,7.53c0.24,3.61,0.97,14.58-5.77,15.57
				C60.74,68.96,60.67,68.96,60.61,68.96z"/>
		</g>
		<g>
			<path class="st0" d="M69.47,50.61c-0.08,0-0.16-0.01-0.24-0.02c-0.75-0.13-1.26-0.85-1.12-1.6c0.42-2.35,2.79-4.47,6.06-5.4
				c3.78-1.07,7.37-0.2,9.62,2.32c0.51,0.57,0.46,1.45-0.11,1.96c-0.57,0.51-1.45,0.46-1.96-0.11c-2.26-2.54-5.77-1.79-6.8-1.5
				c-2.15,0.61-3.87,1.96-4.09,3.22C70.71,50.14,70.13,50.61,69.47,50.61z"/>
		</g>
		<g>
			<path class="st0" d="M60.29,34.19c-1.34,0-2.43-1.09-2.43-2.43c0-1.34,1.09-2.43,2.43-2.43c1.34,0,2.43,1.09,2.43,2.43
				C62.71,33.1,61.62,34.19,60.29,34.19z M60.29,31.42c-0.19,0-0.34,0.15-0.34,0.34c0,0.19,0.15,0.34,0.34,0.34
				c0.19,0,0.34-0.15,0.34-0.34C60.63,31.57,60.47,31.42,60.29,31.42z"/>
		</g>
		<g>
			<path class="st0" d="M46.46,39.71c-0.03,0-0.06,0-0.09,0c-0.62,0-1.19-0.42-1.34-1.05c-0.14-0.54,0.06-1.12,0.49-1.46
				c0.34-0.27,0.93-0.44,1.54-0.12c0.67,0.32,0.97,1.12,0.67,1.8C47.5,39.4,46.99,39.71,46.46,39.71z"/>
		</g>
		<g>
			<path class="st0" d="M50.24,40.88c-0.03,0-0.06,0-0.09,0c-0.62,0-1.19-0.42-1.34-1.05c-0.14-0.54,0.06-1.12,0.49-1.46
				c0.34-0.27,0.93-0.44,1.54-0.13c0.67,0.32,0.97,1.12,0.67,1.8C51.28,40.57,50.77,40.88,50.24,40.88z"/>
		</g>
		<g>
			<path class="st0" d="M54.01,41.4c-0.03,0-0.06,0-0.09,0c-0.63,0-1.19-0.43-1.35-1.07c-0.13-0.55,0.06-1.1,0.5-1.45
				c0.34-0.27,0.92-0.44,1.53-0.12c0.67,0.32,0.97,1.11,0.68,1.79C55.06,41.09,54.55,41.4,54.01,41.4z"/>
		</g>
	</g>
	<g>
		<path class="st0" d="M60.72,26.16c-0.37,0-0.72-0.15-0.98-0.41c-0.26-0.26-0.4-0.62-0.4-0.98c0-0.37,0.15-0.72,0.4-0.98
			c0.26-0.26,0.61-0.4,0.98-0.4c0.37,0,0.72,0.15,0.98,0.4c0.26,0.26,0.41,0.62,0.41,0.98s-0.15,0.72-0.41,0.98
			C61.44,26.01,61.08,26.16,60.72,26.16z"/>
	</g>
</g>
</svg>
