<?xml version="1.0" encoding="utf-8"?>
<!-- Generator: Adobe Illustrator 24.3.0, SVG Export Plug-In . SVG Version: 6.00 Build 0)  -->
<svg version="1.1" id="Capa_1" xmlns="http://www.w3.org/2000/svg" xmlns:xlink="http://www.w3.org/1999/xlink" x="0px" y="0px"
	 viewBox="0 0 106.41 86.46" style="enable-background:new 0 0 106.41 86.46;" xml:space="preserve">
<style type="text/css">
	.st0{fill:#FFFFFF;}
</style>
<g>
	<path class="st0" d="M83.69,51.64c-0.2-3.59-0.48-6.93-0.78-9.41c-0.42-3.46-0.78-4.76-1.34-5.39c-0.82-1.53-2.01-3.18-3.54-4.92
		c-0.58-0.66-1.58-0.72-2.24-0.14c-0.66,0.58-0.72,1.58-0.14,2.24c0.67,0.76,1.27,1.5,1.78,2.21c-2.38,0.13-6.45,0.46-13.68,1.08
		c-3.82,0.33-8.13,0.7-12.38,1.03c-0.28-0.56-0.64-1.08-1.09-1.54c-0.92-0.95-2.61-2.08-5.46-2.08c-3.37,0-6.19,2.32-6.96,4.64
		c-0.02,0-0.04,0-0.06,0c-3.36,0.23-6.28,0.41-8.65,0.54l17.59-9.83c1.39,2,3.71,3.24,6.18,3.24c4.15,0,7.53-3.38,7.53-7.53
		c0-1.04-0.22-2.07-0.63-3.01l1.54-0.86c1.77,1.21,6.21,4.34,10.3,8.08c0.65,0.59,1.65,0.54,2.24-0.1c0.59-0.65,0.54-1.65-0.1-2.24
		c-5.42-4.94-11.25-8.76-11.5-8.92c-0.49-0.32-1.13-0.34-1.64-0.06L21.66,40.48c-0.63,0.35-0.94,1.09-0.76,1.78l0.21,5.56
		c0.02,0.44,0.21,0.84,0.54,1.13c0.33,0.29,0.76,0.43,1.19,0.39c0.58-0.05,2.48,0.01,3.61,0.96c0.62,0.52,0.96,1.26,1.04,2.27
		c0.11,1.43-0.19,2.59-0.88,3.35c-1.2,1.3-3.28,1.38-3.3,1.38c0,0,0,0-0.01,0c-0.81,0-1.5,0.57-1.58,1.38
		c-0.04,0.38-0.36,3.75,0.03,5.59c0.53,2.52,2.16,3.79,5.12,4.04c1.47,0.12,14.91,0.28,27.67,0.34c3.28,0.01,6.15,0.02,8.69,0.02
		c17.52,0,18.41-0.31,18.82-0.45c1.35-0.47,1.79-1.95,1.9-6.33C84.03,58.55,83.85,54.48,83.69,51.64z M57.28,25.81
		c0,2.4-1.96,4.36-4.36,4.36c-1.35,0-2.58-0.6-3.39-1.62l7.5-4.19C57.2,24.82,57.28,25.31,57.28,25.81z M44.82,37.91
		c3.17,0,4,1.97,4,3.01c0,1.23-1.79,2.71-4,2.71c-2.22,0-4-1.65-4-3.01C40.82,39.81,42.51,37.91,44.82,37.91z M80.5,65.25
		c-6.31,0.47-51,0.08-53.37-0.12c-1.99-0.17-2.12-0.77-2.28-1.54c-0.16-0.74-0.14-2.18-0.07-3.39c1.19-0.23,2.86-0.8,4.13-2.16
		c1.33-1.43,1.92-3.35,1.73-5.71c-0.14-1.84-0.89-3.38-2.15-4.45c-1.36-1.15-3.04-1.55-4.27-1.67l-0.11-2.83
		c2.4-0.12,7.32-0.38,13.9-0.82c0.01,0,0.02,0,0.02,0c0.99,2.41,3.74,4.25,6.78,4.25c3.59,0,6.76-2.42,7.14-5.31
		c4.15-0.33,8.34-0.69,12.06-1.01c6.4-0.55,12.99-1.11,15.22-1.14c0.39,1.63,0.92,6.11,1.28,12.48
		C80.99,60.04,80.76,63.93,80.5,65.25z"/>
	<path class="st0" d="M68.35,43.91c-4.06,0-7.36,3.3-7.36,7.36c0,4.06,3.3,7.36,7.36,7.36c4.06,0,7.36-3.3,7.36-7.36
		C75.71,47.22,72.41,43.91,68.35,43.91z M68.35,55.47c-2.31,0-4.19-1.88-4.19-4.19c0-2.31,1.88-4.19,4.19-4.19
		c2.31,0,4.19,1.88,4.19,4.19C72.54,53.59,70.66,55.47,68.35,55.47z"/>
	<path class="st0" d="M49.43,50.25c-3.75,0-6.8,3.05-6.8,6.8c0,3.75,3.05,6.8,6.8,6.8c3.75,0,6.8-3.05,6.8-6.8
		C56.23,53.3,53.18,50.25,49.43,50.25z M49.43,60.67c-2,0-3.62-1.63-3.62-3.62c0-2,1.63-3.62,3.62-3.62c2,0,3.63,1.63,3.63,3.62
		C53.05,59.05,51.43,60.67,49.43,60.67z"/>
</g>
</svg>
