<?xml version="1.0" encoding="utf-8"?>
<!-- Generator: Adobe Illustrator 24.3.0, SVG Export Plug-In . SVG Version: 6.00 Build 0)  -->
<svg version="1.1" id="Capa_1" xmlns="http://www.w3.org/2000/svg" xmlns:xlink="http://www.w3.org/1999/xlink" x="0px" y="0px"
	 viewBox="0 0 106.41 86.46" style="enable-background:new 0 0 106.41 86.46;" xml:space="preserve">
<style type="text/css">
	.st0{fill:#FFFFFF;}
</style>
<g>
	<g>
		<g>
			<g>
				<path class="st0" d="M63.19,57.86c-2.05,0-5.6-0.31-8.92-1.18c-0.86-0.23-1.38-1.11-1.15-1.98c0.23-0.86,1.11-1.38,1.98-1.15
					c2.83,0.74,6.09,1.08,8.09,1.08c0.01,0,0.03,0,0.04,0c4.71-0.01,9.54-0.97,12.92-2.57c3.24-1.53,5.65-4.23,7.61-8.49
					c1.55-3.38,1.37-6.65-0.57-10c-2.71-4.69-8.83-7.05-13.24-7.65c-24.24-3.27-35.14-1.53-39.48-0.19
					c-2.46,0.75-5.62,2.52-6.64,4.16c-1.37,2.19-1.71,4.52-0.97,6.55c0.73,2,2.44,3.52,4.81,4.27c1.49,0.48,3.11,0.58,4.81,0.69
					c1.77,0.11,3.6,0.23,5.42,0.78c1.87,0.57,3.18,2,4.33,3.26c0.98,1.07,1.91,2.09,2.86,2.2c0.89,0.1,1.52,0.91,1.42,1.8
					c-0.1,0.89-0.91,1.53-1.8,1.42c-2.15-0.25-3.6-1.84-4.87-3.23c-0.95-1.05-1.86-2.03-2.88-2.34c-1.46-0.44-3.03-0.54-4.69-0.65
					c-1.83-0.12-3.72-0.24-5.59-0.84c-3.34-1.07-5.78-3.29-6.86-6.24c-1.1-3-0.65-6.33,1.26-9.38c1.8-2.88,6.31-4.88,8.44-5.54
					c5.61-1.72,17.25-3.11,40.86,0.08c5.39,0.73,12.32,3.54,15.61,9.24c2.46,4.27,2.7,8.63,0.71,12.97
					c-2.29,4.99-5.2,8.19-9.17,10.07c-3.85,1.82-9.06,2.87-14.3,2.89C63.22,57.86,63.21,57.86,63.19,57.86z"/>
			</g>
			<g>
				<path class="st0" d="M50.05,54.8c-0.32,0-0.64-0.09-0.92-0.29c-0.8-0.56-0.8-1.31-0.77-1.61c0-0.02,0-0.03,0.01-0.05
					c0.02-0.36,0.17-0.72,0.43-1c0.61-0.65,1.63-0.69,2.29-0.08c0.46,0.43,0.57,0.9,0.57,1.24c0.04,0.37-0.05,0.77-0.28,1.1
					C51.07,54.56,50.56,54.8,50.05,54.8z"/>
			</g>
			<g>
				<path class="st0" d="M46.85,52.35c-0.32,0-0.64-0.09-0.93-0.29c-0.31-0.22-0.59-0.44-0.84-0.67c-0.65-0.61-0.69-1.64-0.08-2.29
					c0.61-0.65,1.64-0.69,2.29-0.08c0.13,0.13,0.3,0.26,0.48,0.38c0.73,0.51,0.91,1.52,0.4,2.25
					C47.86,52.11,47.36,52.35,46.85,52.35z"/>
			</g>
			<g>
				<path class="st0" d="M62.4,66.68c-2.3,0-4.48-0.2-6.41-0.57c-4.4-0.86-8.61-3.28-12.32-5.41l-0.85-0.49
					c-1.12-0.64-2.13-1.29-3.12-1.92c-2.68-1.71-5-3.19-8.32-3.81c-0.63-0.12-1.33-0.21-2.06-0.3c-1.98-0.25-4.22-0.54-5.98-1.54
					c-5.59-3.18-5.21-6.61-4.7-11.36c0.19-1.8,0.41-3.83,0.41-6.33c0-0.89,0.72-1.62,1.62-1.62c0,0,0,0,0,0
					c0.89,0,1.62,0.72,1.62,1.62c0.01,2.68-0.24,4.9-0.43,6.69c-0.49,4.54-0.66,6.07,3.08,8.2c1.21,0.69,3.03,0.92,4.79,1.15
					c0.75,0.1,1.52,0.2,2.24,0.33c3.93,0.74,6.62,2.45,9.47,4.27c0.95,0.61,1.93,1.23,2.98,1.84l0.86,0.49
					c3.66,2.11,7.45,4.28,11.32,5.04c7.1,1.38,17.84,0.03,23.54-4.63c2.73-2.24,4.13-5.07,4.16-8.42c0.01-0.89,0.73-1.61,1.62-1.61
					c0,0,0.01,0,0.01,0c0.89,0.01,1.61,0.74,1.61,1.63c-0.03,4.36-1.83,8.03-5.34,10.91C77.19,64.89,69.3,66.68,62.4,66.68z"/>
			</g>
			<g>
				<path class="st0" d="M85.85,52.24c-0.02,0-0.04,0-0.06,0c-0.89-0.03-1.59-0.78-1.56-1.67l0.32-9.27
					c0.03-0.89,0.79-1.6,1.67-1.56c0.89,0.03,1.59,0.78,1.56,1.67l-0.32,9.27C87.43,51.55,86.71,52.24,85.85,52.24z"/>
			</g>
		</g>
	</g>
	<g>
		<path class="st0" d="M66.42,41.44c-0.11,0-0.23-0.01-0.35-0.04l-33.02-7.17c-0.87-0.19-1.43-1.05-1.24-1.93
			c0.19-0.87,1.05-1.43,1.93-1.24l33.02,7.17c0.87,0.19,1.43,1.05,1.24,1.93C67.83,40.92,67.16,41.44,66.42,41.44z"/>
	</g>
	<g>
		<path class="st0" d="M61.88,48.47c-0.32,0-0.64-0.09-0.93-0.29c-0.73-0.51-0.91-1.52-0.4-2.25l9.71-13.87
			c0.51-0.73,1.52-0.91,2.25-0.4c0.73,0.51,0.91,1.52,0.4,2.25l-9.71,13.87C62.89,48.23,62.39,48.47,61.88,48.47z"/>
	</g>
</g>
</svg>
