<?xml version="1.0" encoding="utf-8"?>
<!-- Generator: Adobe Illustrator 24.3.0, SVG Export Plug-In . SVG Version: 6.00 Build 0)  -->
<svg version="1.1" id="Capa_1" xmlns="http://www.w3.org/2000/svg" xmlns:xlink="http://www.w3.org/1999/xlink" x="0px" y="0px"
	 viewBox="0 0 53.21 59.06" style="enable-background:new 0 0 53.21 59.06;" xml:space="preserve">
<style type="text/css">
	.st0{fill:#FFFFFF;}
</style>
<g>
	<g>
		<line class="st0" x1="43.99" y1="54.64" x2="35.53" y2="45.88"/>
		<path class="st0" d="M14.71,3.02c1.32-0.62,2.62-1.11,3.26-1c0,0,1.29-0.01,2.01,1.65l3.91,9.89c0,0,1.05,1.81-0.57,3.68
			l-4.01,4.6c0,0,3.03,6.12,5.56,9.7c2.22,3.77,6.56,9.05,6.56,9.05l5.84-1.76c2.38-0.71,3.59,0.99,3.59,0.99l7.41,7.63
			c1.22,1.34,0.68,2.52,0.68,2.52c-0.16,0.62-3.87,3.75-4.96,4.68l-0.85,0.6c-2.73,2-4.53,1.04-4.53,1.04
			c-11.4-4.19-19.84-18.69-20.86-20.15c-0.73-1.19-10.66-15.18-9.8-27.29c0,0-0.14-2.04,2.81-3.71c0,0,0.32-0.19,0.84-0.49
			L14.71,3.02z"/>
	</g>
</g>
</svg>
